<svg xmlns="http://www.w3.org/2000/svg" width="778" height="1024" version="1"><path d="M778 633l1-1-1-1-2-1h-1L637 748h-3l-1-2 7-96v-2l-2-1q-2 0-1 1h-1L475 910v-52q0-38 7-92t21-118q16-65 45-130l-48-21-34 42q-17 20-36 39v-1l-13 19-18 62q-4 41-6 118t-4 137l-4-137q-2-76-6-118-4-43-17-62l-14-19-35-37-34-41-1-2-48 21q29 65 44 128 15 64 22 118t7 92v53L143 649l-2-2-2 1-1 2 7 96v2h-4L4 630H2l-1 1-1 1v1l105 238v3h-3l-83-19h-1l-1 1-1 1v2h1l202 127h3l1-2v-1h-1l-46-104v-1l1-1 1-1h1l209 148h2l209-148h1l2 1v2l-46 104v1l1 2h2l202-127h2v-2l-1-1-2-1-84 19h-2l-1-2v-1zM389 97q14 2 26 9t20 17l9-10q4-5 5-13-11-9-18-46l-8-37-34-17-34 17-7 37-19 46q2 7 6 13t7 10q9-11 21-17t26-9zm-54 258l54-35 54 34 1 1 3-1 1-2-1-1q-8-22-22-83t0-136l-8-8-28-9q-20 1-28 9l-8 8q13 74-1 136t-22 83v1l1 3 2 1h2v-1zM111 548l30 14 2 1h1l4-1 2-2 27-31q19-22 30-32 15-13 54-22l38-10 83 83 3 2 4 1 4-1 3-2 87-85 37 11 50 23q12 11 31 33t26 30l3 2 3 1h2l1-1 31-14q2 0 3-2t1-4v-2l-1-2-28-48q-19-33-22-49l-26-6-63-19q-37-12-77-31-39-18-65-41-27 23-66 41t-76 31-64 19l-26 6q-1 15-20 49t-30 48v2l-1 2 2 4 3 2z" fill="#ccf7fb"/></svg>