<svg xmlns="http://www.w3.org/2000/svg" width="719" height="1024"><path d="M456 477q-34-22-39-67l-5-45q-13-11-31.5-12.5L362 351l-18.5 1.5L312 365l-4.5 44.5L268 477q-34 23-44.5 28l-10.5 5 5 58 20 139.5L281 876l74 145q2 1 3.5 2t3.5 1 4-1 3-2q47-59 75-146t43-168 20-139l5-58-10.5-5-45.5-28zm-94 175l-17-52.5-27-60.5 14-17 30-25q17 8 30.5 25l13.5 17q-10 8-27 60.5L362 652zm-50-480v58h1v-1q12-10 30.5-11.5L362 216l18.5 1.5L412 229v-57q21-11 34.5-32.5T460 93v-1q0-38-28.5-65T362 0t-70 27-29 66q1 25 14 46.5t34 32.5h1zm50-117h1q16 0 27 11t11 27q0 15-11.5 26T362 130t-27.5-11T322 93q1-16 12-27t27-11h1zm50 282v-83q-13-9-31.5-11l-18.5-2-18.5 2-31.5 12v82q13-10 31.5-11.5L362 324l18.5 1.5L412 337zM185 597q-52 54-84 102-33 49-51.5 87T24 851q-8 28-10 40v1q0 3 2 5t4 2h1.5l1.5-1q56-21 105-48.5t92-60.5l-2 1v-5q-10-39-18-85.5T186 604l-1-7zm348 0q52 54 84 102 33 49 51.5 87t26.5 65q7 28 9 40v1q0 3-2 5t-4 2h-1.5l-1.5-1q-56-21-104.5-48.5T498 789l2 1v-5q10-39 18.5-85.5T532 604l1-7zm153-491q-11-10-25.5-15.5T630 85q-37 0-62.5 26T542 173q0 11 2.5 21t7.5 19h-1q0 8-7.5 21T523 264q-21 25-42.5 48T437 356h-1q3 20 7.5 48t24.5 45q25-43 50.5-80.5T571 296l-2 3q13-17 23-28.5t18-13.5q22 3 48-2.5t41-23.5q9-11 14.5-25.5T719 175q0-21-9-39t-24-30zm-33 88q-4 5-10 8t-13 3q-13 0-21.5-9t-8.5-21q0-13 8.5-21.5T630 145q5 0 10 1.5t9 4.5q5 5 8 11t3 13q0 5-2 10t-5 9zM20 231q15 18 41 23.5t48 2.5q8 2 18 13.5t23 28.5q26 32 50.5 68.5T248 442l3 6q20-16 24.5-44t6.5-48q-22-22-43-44.5T198 266l-2-2q-13-17-20.5-30t-7.5-22q4-8 6.5-18t2.5-21q0-16-5-30t-14-25q-12-16-30.5-25.5T87 83q-37 0-63 26t-26 63q0 17 6 32t16 27zm50-79q4-4 9-5.5t10-1.5q13 0 21.5 8.5T119 175q0 12-8.5 21T89 205q-7 0-13-3t-10-8q-3-4-5-9t-2-10q0-7 3-13t8-10z" fill="#ccf7fb"/></svg>