<svg xmlns="http://www.w3.org/2000/svg" width="831" height="1024"><path d="M625 305l-36-24-61-40-65-44-42-29-2-1h-6l-3 1-42 29-64 44q-33 23-62 40l-37 24q-11 6-31 8t-34 1q-4 0-6 3t-3 7v1l8 72 13 107 14 103q7 47 11 63 9 34 29 60t22 29v1q44 42 105 80t78 47l2 1h5l3-1h-1l79-47q61-37 104-80l1-1 22-29q20-26 28-60 4-15 11-63t14-103 13-107 9-72v-1q0-4-3-7t-7-3q-13 1-33-1t-33-8zm108-101q-41-5-76-24t-86-58q-48-35-91-71T422 2l-3-1-4-1-3 1-3 1-58 49q-43 36-91 71-51 38-86 58t-76 24l-15 2-16 1-28-2-28-5h2-1l-2-1q-4 0-7 3t-3 7v1q4 69 10 135 6 67 15 132t20 127q11 64 25 126l-4-21q9 30 24 56t35 48h-1q23 24 55 53 32 28 70 57t79 55q42 26 83 45l2 1h5l2-1q41-19 83-45 41-26 79-55t70-57q32-29 55-53 19-22 34-47t24-55v-2q13-55 23-113l19-121q9-62 14-127 6-64 10-130v-8q0-4-3-7t-7-3h-2l-26 5-28 2h-17q-8 0-16-3h1zm-45 487q-10 39-32 69t-25 32l-1 1q-26 24-58 48t-63 44-55 35l-34 19-2 2h-5l-2-2-34-19-55-35-63-44q-33-24-58-48h-1l-24-33q-22-30-33-69-5-18-13-74t-16-120-15-122l-10-80v-1q0-4 3-7t7-3l38-1q24-1 38-10l42-27 72-48 73-50 48-32 3-1h6l2 1 48 32 74 50 71 48q32 22 42 27 14 8 38 10t38 1q4 0 7 3t3 7v1l-10 81-15 121-16 120q-8 56-13 74z" fill="#ccf7fb"/></svg>